<?xml version="1.0" encoding="UTF-8" standalone="no"?>
<!DOCTYPE svg PUBLIC "-//W3C//DTD SVG 1.1//EN"
 "http://www.w3.org/Graphics/SVG/1.1/DTD/svg11.dtd">
<!-- Generated by graphviz version 2.40.1 (0)
 -->
<!-- Title: Ped_10081 Pages: 1 -->
<svg width="937pt" height="678pt"
 viewBox="0.00 0.00 937.33 678.45" xmlns="http://www.w3.org/2000/svg" xmlns:xlink="http://www.w3.org/1999/xlink">
<g id="graph0" class="graph" transform="scale(1 1) rotate(0) translate(4 674.4502)">
<title>Ped_10081</title>
<polygon fill="#ffffff" stroke="transparent" points="-4,4 -4,-674.4502 933.3266,-674.4502 933.3266,4 -4,4"/>
<text text-anchor="middle" x="464.6633" y="-7.8" font-family="Times,serif" font-size="14.00" fill="#000000">Pedigree 10081</text>
<!-- 1 -->
<g id="node1" class="node">
<title>1</title>
<ellipse fill="#ffffff" stroke="#000000" cx="282.6185" cy="-76.5315" rx="18" ry="18"/>
<text text-anchor="middle" x="282.6185" y="-72.8315" font-family="Times,serif" font-size="14.00" fill="#000000">1</text>
</g>
<!-- 2 -->
<g id="node2" class="node">
<title>2</title>
<polygon fill="#c0c0c0" stroke="#000000" points="479.7872,-251.5313 443.7872,-251.5313 443.7872,-215.5313 479.7872,-215.5313 479.7872,-251.5313"/>
<text text-anchor="middle" x="461.7872" y="-229.8313" font-family="Times,serif" font-size="14.00" fill="#000000">2</text>
</g>
<!-- t_2x3 -->
<g id="node17" class="node">
<title>t_2x3</title>
<polygon fill="#d3d3d3" stroke="#000000" points="407.7989,-172.0725 404.2989,-168.5725 407.7989,-165.0725 411.2989,-168.5725 407.7989,-172.0725"/>
</g>
<!-- 2&#45;&gt;t_2x3 -->
<g id="edge1" class="edge">
<title>2&#45;&gt;t_2x3</title>
<path fill="none" stroke="#000000" stroke-width="3" d="M446.7484,-215.4367C433.5194,-199.5195 415.4897,-177.8261 409.6828,-170.8392"/>
</g>
<!-- t_2x10 -->
<g id="node21" class="node">
<title>t_2x10</title>
<polygon fill="#d3d3d3" stroke="#000000" points="534.3064,-279.2342 530.8064,-275.7342 534.3064,-272.2342 537.8064,-275.7342 534.3064,-279.2342"/>
</g>
<!-- 2&#45;&gt;t_2x10 -->
<g id="edge13" class="edge">
<title>2&#45;&gt;t_2x10</title>
<path fill="none" stroke="#000000" stroke-width="3" d="M480.0868,-244.1809C498.2133,-254.7296 524.351,-269.9406 532.0765,-274.4365"/>
</g>
<!-- 3 -->
<g id="node3" class="node">
<title>3</title>
<ellipse fill="#c0c0c0" stroke="#000000" cx="459.8749" cy="-100.5291" rx="18" ry="18"/>
<text text-anchor="middle" x="459.8749" y="-96.8291" font-family="Times,serif" font-size="14.00" fill="#000000">3</text>
</g>
<!-- 3&#45;&gt;t_2x3 -->
<g id="edge2" class="edge">
<title>3&#45;&gt;t_2x3</title>
<path fill="none" stroke="#000000" stroke-width="3" d="M448.8309,-114.9594C435.933,-131.812 415.589,-158.3938 409.5465,-166.2891"/>
</g>
<!-- 4 -->
<g id="node4" class="node">
<title>4</title>
<ellipse fill="#ffffff" stroke="#000000" cx="239.1431" cy="-150.5255" rx="18" ry="18"/>
<text text-anchor="middle" x="239.1431" y="-146.8255" font-family="Times,serif" font-size="14.00" fill="#000000">4</text>
</g>
<!-- t_8x4 -->
<g id="node19" class="node">
<title>t_8x4</title>
<polygon fill="#d3d3d3" stroke="#000000" points="156.7175,-146.3265 153.2175,-142.8265 156.7175,-139.3265 160.2175,-142.8265 156.7175,-146.3265"/>
</g>
<!-- 4&#45;&gt;t_8x4 -->
<g id="edge10" class="edge">
<title>4&#45;&gt;t_8x4</title>
<path fill="none" stroke="#000000" stroke-width="3" d="M220.8502,-148.8169C200.7406,-146.9385 169.9559,-144.063 159.9677,-143.1301"/>
</g>
<!-- 5 -->
<g id="node5" class="node">
<title>5</title>
<ellipse fill="#ffffff" stroke="#000000" cx="301.8342" cy="-204.5897" rx="18" ry="18"/>
<text text-anchor="middle" x="301.8342" y="-200.8897" font-family="Times,serif" font-size="14.00" fill="#000000">5</text>
</g>
<!-- 6 -->
<g id="node6" class="node">
<title>6</title>
<polygon fill="#ffffff" stroke="#000000" points="387.31,-80.4214 351.31,-80.4214 351.31,-44.4214 387.31,-44.4214 387.31,-80.4214"/>
<text text-anchor="middle" x="369.31" y="-58.7214" font-family="Times,serif" font-size="14.00" fill="#000000">6</text>
</g>
<!-- 7 -->
<g id="node7" class="node">
<title>7</title>
<ellipse fill="#ffffff" stroke="#000000" cx="324.4703" cy="-41" rx="18" ry="18"/>
<text text-anchor="middle" x="324.4703" y="-37.3" font-family="Times,serif" font-size="14.00" fill="#000000">7</text>
</g>
<!-- 8 -->
<g id="node8" class="node">
<title>8</title>
<polygon fill="#ffffff" stroke="#000000" points="130.4488,-89.9097 94.4488,-89.9097 94.4488,-53.9097 130.4488,-53.9097 130.4488,-89.9097"/>
<text text-anchor="middle" x="112.4488" y="-68.2097" font-family="Times,serif" font-size="14.00" fill="#000000">8</text>
</g>
<!-- 8&#45;&gt;t_8x4 -->
<g id="edge9" class="edge">
<title>8&#45;&gt;t_8x4</title>
<path fill="none" stroke="#000000" stroke-width="3" d="M123.8491,-90.1725C134.9161,-107.9015 150.707,-133.1979 155.3715,-140.6702"/>
</g>
<!-- 9 -->
<g id="node9" class="node">
<title>9</title>
<polygon fill="#ffffff" stroke="#000000" points="36,-224.0053 0,-224.0053 0,-188.0053 36,-188.0053 36,-224.0053"/>
<text text-anchor="middle" x="18" y="-202.3053" font-family="Times,serif" font-size="14.00" fill="#000000">9</text>
</g>
<!-- 10 -->
<g id="node10" class="node">
<title>10</title>
<ellipse fill="#ffffff" stroke="#000000" cx="582.1873" cy="-212.4762" rx="22.9987" ry="22.9987"/>
<text text-anchor="middle" x="582.1873" y="-208.7762" font-family="Times,serif" font-size="14.00" fill="#000000">10</text>
</g>
<!-- 10&#45;&gt;t_2x10 -->
<g id="edge14" class="edge">
<title>10&#45;&gt;t_2x10</title>
<path fill="none" stroke="#000000" stroke-width="3" d="M568.3382,-230.7731C556.6276,-246.2445 540.974,-266.9253 535.939,-273.5773"/>
</g>
<!-- 11 -->
<g id="node11" class="node">
<title>11</title>
<ellipse fill="#c0c0c0" stroke="#000000" cx="681.0328" cy="-316.4136" rx="22.9987" ry="22.9987"/>
<text text-anchor="middle" x="681.0328" y="-312.7136" font-family="Times,serif" font-size="14.00" fill="#000000">11</text>
</g>
<!-- t_13x11 -->
<g id="node23" class="node">
<title>t_13x11</title>
<polygon fill="#d3d3d3" stroke="#000000" points="761.1187,-294.5529 757.6187,-291.0529 761.1187,-287.5529 764.6187,-291.0529 761.1187,-294.5529"/>
</g>
<!-- 11&#45;&gt;t_13x11 -->
<g id="edge19" class="edge">
<title>11&#45;&gt;t_13x11</title>
<path fill="none" stroke="#000000" stroke-width="3" d="M702.9166,-309.4837C722.5531,-303.2654 749.5811,-294.7065 758.292,-291.9481"/>
</g>
<!-- 12 -->
<g id="node12" class="node">
<title>12</title>
<ellipse fill="#ffffff" stroke="#000000" cx="582.6609" cy="-422.0794" rx="22.9987" ry="22.9987"/>
<text text-anchor="middle" x="582.6609" y="-418.3794" font-family="Times,serif" font-size="14.00" fill="#000000">12</text>
</g>
<!-- t_15x12 -->
<g id="node25" class="node">
<title>t_15x12</title>
<polygon fill="#d3d3d3" stroke="#000000" points="575.9078,-508.1394 572.4078,-504.6394 575.9078,-501.1394 579.4078,-504.6394 575.9078,-508.1394"/>
</g>
<!-- 12&#45;&gt;t_15x12 -->
<g id="edge23" class="edge">
<title>12&#45;&gt;t_15x12</title>
<path fill="none" stroke="#000000" stroke-width="3" d="M580.7798,-445.077C579.1562,-464.9254 576.9547,-491.8407 576.1862,-501.2361"/>
</g>
<!-- 13 -->
<g id="node13" class="node">
<title>13</title>
<polygon fill="#ffffff" stroke="#000000" points="818.7677,-237.0191 782.7677,-237.0191 782.7677,-201.0191 818.7677,-201.0191 818.7677,-237.0191"/>
<text text-anchor="middle" x="800.7677" y="-215.3191" font-family="Times,serif" font-size="14.00" fill="#000000">13</text>
</g>
<!-- 13&#45;&gt;t_13x11 -->
<g id="edge18" class="edge">
<title>13&#45;&gt;t_13x11</title>
<path fill="none" stroke="#000000" stroke-width="3" d="M790.7626,-237.1963C781.0357,-254.868 767.0895,-280.2053 762.5828,-288.393"/>
</g>
<!-- 14 -->
<g id="node14" class="node">
<title>14</title>
<polygon fill="#ffffff" stroke="#000000" points="929.3266,-343.4685 893.3266,-343.4685 893.3266,-307.4685 929.3266,-307.4685 929.3266,-343.4685"/>
<text text-anchor="middle" x="911.3266" y="-321.7685" font-family="Times,serif" font-size="14.00" fill="#000000">14</text>
</g>
<!-- 15 -->
<g id="node15" class="node">
<title>15</title>
<polygon fill="#ffffff" stroke="#000000" points="531.1,-573.3244 495.1,-573.3244 495.1,-537.3244 531.1,-537.3244 531.1,-573.3244"/>
<text text-anchor="middle" x="513.1" y="-551.6244" font-family="Times,serif" font-size="14.00" fill="#000000">15</text>
</g>
<!-- 15&#45;&gt;t_15x12 -->
<g id="edge22" class="edge">
<title>15&#45;&gt;t_15x12</title>
<path fill="none" stroke="#000000" stroke-width="3" d="M531.2666,-540.6642C546.6279,-528.2679 567.1616,-511.6975 573.7662,-506.3676"/>
</g>
<!-- 16 -->
<g id="node16" class="node">
<title>16</title>
<ellipse fill="#ffffff" stroke="#000000" cx="636.3183" cy="-647.7023" rx="22.9987" ry="22.9987"/>
<text text-anchor="middle" x="636.3183" y="-644.0023" font-family="Times,serif" font-size="14.00" fill="#000000">16</text>
</g>
<!-- b_2x3 -->
<g id="node18" class="node">
<title>b_2x3</title>
<polygon fill="#d3d3d3" stroke="#000000" points="327.293,-135.7044 323.793,-132.2044 327.293,-128.7044 330.793,-132.2044 327.293,-135.7044"/>
</g>
<!-- t_2x3&#45;&gt;b_2x3 -->
<g id="edge3" class="edge">
<title>t_2x3&#45;&gt;b_2x3</title>
<path fill="none" stroke="#000000" stroke-width="3" d="M405.1203,-167.3625C392.7883,-161.7916 341.5747,-138.6561 329.7408,-133.3102"/>
</g>
<!-- b_2x3&#45;&gt;1 -->
<g id="edge4" class="edge">
<title>b_2x3&#45;&gt;1</title>
<path fill="none" stroke="#000000" d="M325.3734,-129.8122C320.029,-123.1521 304.664,-104.0044 293.8918,-90.5801"/>
</g>
<!-- b_2x3&#45;&gt;4 -->
<g id="edge5" class="edge">
<title>b_2x3&#45;&gt;4</title>
<path fill="none" stroke="#000000" d="M324.3601,-132.814C314.0238,-134.9623 278.7407,-142.2955 256.9484,-146.8249"/>
</g>
<!-- b_2x3&#45;&gt;5 -->
<g id="edge6" class="edge">
<title>b_2x3&#45;&gt;5</title>
<path fill="none" stroke="#000000" d="M326.3261,-134.9536C323.3469,-143.424 314.1333,-169.6204 307.8958,-187.3551"/>
</g>
<!-- b_2x3&#45;&gt;6 -->
<g id="edge7" class="edge">
<title>b_2x3&#45;&gt;6</title>
<path fill="none" stroke="#000000" d="M328.691,-129.8826C333.2476,-122.3148 347.9753,-97.8547 358.3802,-80.5739"/>
</g>
<!-- b_2x3&#45;&gt;7 -->
<g id="edge8" class="edge">
<title>b_2x3&#45;&gt;7</title>
<path fill="none" stroke="#000000" d="M327.1858,-128.7405C326.8373,-117.4822 325.7197,-81.3709 325.0316,-59.1383"/>
</g>
<!-- b_8x4 -->
<g id="node20" class="node">
<title>b_8x4</title>
<polygon fill="#d3d3d3" stroke="#000000" points="92.3268,-194.3758 88.8268,-190.8758 92.3268,-187.3758 95.8268,-190.8758 92.3268,-194.3758"/>
</g>
<!-- t_8x4&#45;&gt;b_8x4 -->
<g id="edge11" class="edge">
<title>t_8x4&#45;&gt;b_8x4</title>
<path fill="none" stroke="#000000" stroke-width="3" d="M154.5751,-144.4252C144.7989,-151.7203 104.4722,-181.8127 94.5432,-189.2219"/>
</g>
<!-- b_8x4&#45;&gt;9 -->
<g id="edge12" class="edge">
<title>b_8x4&#45;&gt;9</title>
<path fill="none" stroke="#000000" d="M89.133,-191.5259C80.1303,-193.3585 54.0363,-198.67 36.0873,-202.3235"/>
</g>
<!-- b_2x10 -->
<g id="node22" class="node">
<title>b_2x10</title>
<polygon fill="#d3d3d3" stroke="#000000" points="595.6492,-341.1188 592.1492,-337.6188 595.6492,-334.1188 599.1492,-337.6188 595.6492,-341.1188"/>
</g>
<!-- t_2x10&#45;&gt;b_2x10 -->
<g id="edge15" class="edge">
<title>t_2x10&#45;&gt;b_2x10</title>
<path fill="none" stroke="#000000" stroke-width="3" d="M536.0761,-277.5195C544.8767,-286.3978 583.8869,-325.7526 593.502,-335.4526"/>
</g>
<!-- b_2x10&#45;&gt;11 -->
<g id="edge16" class="edge">
<title>b_2x10&#45;&gt;11</title>
<path fill="none" stroke="#000000" d="M598.4901,-336.9133C607.7497,-334.6136 637.678,-327.1808 658.8222,-321.9296"/>
</g>
<!-- b_2x10&#45;&gt;12 -->
<g id="edge17" class="edge">
<title>b_2x10&#45;&gt;12</title>
<path fill="none" stroke="#000000" d="M595.1559,-340.8266C593.7009,-350.2882 589.331,-378.7048 586.1688,-399.2684"/>
</g>
<!-- b_13x11 -->
<g id="node24" class="node">
<title>b_13x11</title>
<polygon fill="#d3d3d3" stroke="#000000" points="835.0108,-325.6863 831.5108,-322.1863 835.0108,-318.6863 838.5108,-322.1863 835.0108,-325.6863"/>
</g>
<!-- t_13x11&#45;&gt;b_13x11 -->
<g id="edge20" class="edge">
<title>t_13x11&#45;&gt;b_13x11</title>
<path fill="none" stroke="#000000" stroke-width="3" d="M763.9252,-292.2354C775.7353,-297.2114 821.3027,-316.4106 832.51,-321.1326"/>
</g>
<!-- b_13x11&#45;&gt;14 -->
<g id="edge21" class="edge">
<title>b_13x11&#45;&gt;14</title>
<path fill="none" stroke="#000000" d="M838.6917,-322.3446C848.3385,-322.7595 874.8628,-323.9003 893.041,-324.6821"/>
</g>
<!-- b_15x12 -->
<g id="node26" class="node">
<title>b_15x12</title>
<polygon fill="#d3d3d3" stroke="#000000" points="618.8951,-576.5077 615.3951,-573.0077 618.8951,-569.5077 622.3951,-573.0077 618.8951,-576.5077"/>
</g>
<!-- t_15x12&#45;&gt;b_15x12 -->
<g id="edge24" class="edge">
<title>t_15x12&#45;&gt;b_15x12</title>
<path fill="none" stroke="#000000" stroke-width="3" d="M577.338,-506.9142C583.8646,-517.2942 610.7868,-560.1121 617.4154,-570.6543"/>
</g>
<!-- b_15x12&#45;&gt;16 -->
<g id="edge25" class="edge">
<title>b_15x12&#45;&gt;16</title>
<path fill="none" stroke="#000000" d="M619.6437,-576.2173C621.5978,-584.5944 626.9867,-607.697 631.1144,-625.3926"/>
</g>
</g>
</svg>
